{"title":"Chaos(Jason Statham Wesley Snipes(avi)(crime action)[rogercc]","uid":6216328,"size":489460256,"categoryP":"video","categoryS":"movies","magnet":"?xt=urn:btih:d5d87aa52e71be1b35176c1381cffe23dd9c5eaf&amp;dn=Chaos%28Jason+Statham+Wesley+Snipes%28avi%29%28crime+action%29%5Brogercc%5D&amp;tr=udp%3A%2F%2Ftracker.openbittorrent.com%3A80&amp;tr=udp%3A%2F%2Fopen.demonii.com%3A1337&amp;tr=udp%3A%2F%2Ftracker.coppersurfer.tk%3A6969&amp;tr=udp%3A%2F%2Fexodus.desync.com%3A6969","seeders":6,"leechers":2,"uploader":"rogercc1","files":1,"time":1299169824,"description":"CHAOS(JASON STATHAM , WESLEY SNIPES)\nDistributed by Capitol Films Lions Gate Entertainment\nRelease date: 2007\nGenre:Action,Crime\nFormat: avi\n\nIn Seattle, detective Quentin Conners is unfairly suspended and his partner Jason York leaves the police force after a tragic shooting on Pearl Street Bridge, when the hostage and the criminal die. During a bank heist with a hostage situation, Conners is assigned in charge of the operation with the rookie Shane Dekker as his partner. The thieves, lead by Lorenz, apparently do not steal a penny from the bank. While chasing the gangsters, the police team disclose that they planted a virus in the system, stealing one billion dollars from the different accounts, using the principle of the Chaos Theory. Further, they find that Lorenz is killing his accomplices. \n\nDirector: Tony Giglio\n\n\n\nCast:\nJason Statham as Quentin\nRyan Phillippe as Shane Dekker\nWesley Snipes as Lorenz/ Jason York\nHenry Czerny ... Capt. Martin Jenkins\nJustine Waddell ... Det. Teddy Calloway\nNicholas Lea ... Det. Vincent Durano\nKeegan Connor Tracy ... Marine Rollins\nJessica Steen ... Karen Cross\nRob LaBelle ... Bank Manager\nJohn Cassini ... Bernie Callo\nDamon Johnson ... Brendan Dax\nPaul Perri ... Harry Hume\nNatassia Malthe ... Gina Lopez\nTy Olsson ... Damon Richards\nTerry Chen ... Chris Lei\nMike Dopud ... Lamar Galt\nMichasha Armstrong ... Xander Harrington\nKim Howey ... Lisa Reane\nGaston Howard ... John Curtis\n\n\nGeneral\nComplete name                    : F:\\DVD\\CHAOS-2.avi\nFormat                           : AVI\nFile size                        : 467 MiB\nDuration                         : 1h 41mn\nOverall bit rate                 : 640 Kbps\nWriting application              : Lavf52.31.1\n\nVideo\nID                               : 0\nFormat                           : xvid\nCodec ID                         : xvid\nDuration                         : 1h 41mn\nBit rate                         : 563 Kbps\nWidth                            : 702 pixels\nHeight                           : 576 pixels\nDisplay aspect ratio             : 1.219\nFrame rate                       : 25.000 fps\nBits/(Pixel*Frame)               : 0.056\nStream size                      : 411 MiB (88%)\n\nAudio\nID                                  : 1\nFormat                           : MPEG Audio Version 1 Layer 3\nMode                             : Joint stereo\nMode extension             : MS Stereo\nCodec ID                       : 55\nCodec ID/Hint               : MP3 Constant\nBit rate                           : 64.0 Kbps\nChannel(s)                      : 2 channels\nSampling rate                 : 44.1 KHz\nStream size                     : 46.7 MiB (10%)\nAlignment                        : Aligned on interleaves\nInterleave, duration          : 26 ms (0.65 video frame)\nInterleave, preload duration     : 104 ms\n\n","torrent":{"xt":"urn:btih:d5d87aa52e71be1b35176c1381cffe23dd9c5eaf","amp;dn":"Chaos%28Jason+Statham+Wesley+Snipes%28avi%29%28crime+action%29%5Brogercc%5D","amp;tr":["udp%3A%2F%2Ftracker.openbittorrent.com%3A80","udp%3A%2F%2Fopen.demonii.com%3A1337","udp%3A%2F%2Ftracker.coppersurfer.tk%3A6969","udp%3A%2F%2Fexodus.desync.com%3A6969"],"infoHash":"d5d87aa52e71be1b35176c1381cffe23dd9c5eaf","infoHashBuffer":{"type":"Buffer","data":[213,216,122,165,46,113,190,27,53,23,108,19,129,207,254,35,221,156,94,175]},"announce":[],"urlList":[]}}